<svg width="25" height="17" viewBox="0 0 25 17" fill="none" xmlns="http://www.w3.org/2000/svg">
<g id="icon-dcr 1" clip-path="url(#clip0_659_401)">
<path id="Vector" d="M9.09083 0C9.09083 0 6.21667 0 3.075 2.0525C3.075 2.0525 0 7.21417 0 13.6817C0 13.6817 1.805 16.605 6.48417 16.6667L8.02167 15.1117C5.21417 14.3033 4.27833 12.6867 4.27833 12.6867C7.955 15.8583 17.4467 15.7342 20.9225 12.6867C20.9225 12.6867 19.8533 14.4283 17.1125 15.1117L18.5158 16.6667C23.195 16.6042 25 13.6817 25 13.6817C25 7.21417 21.925 2.0525 21.925 2.0525C18.7833 0 15.9092 0 15.9092 0L15.575 0.249167C19.1175 1.12 21.3908 2.79917 21.3233 2.86083C17.6475 0.249167 8.28917 0 3.74333 2.86083C3.74333 2.86083 5.41417 1.24417 9.29167 0.249167L9.09083 0ZM8.48917 7.4625C9.07417 7.4625 9.635 7.69167 10.0492 8.1C10.4633 8.50833 10.695 9.06167 10.695 9.63917C10.695 10.2167 10.4625 10.77 10.0492 11.1783C9.63583 11.5867 9.07417 11.8158 8.48917 11.8158C8.19969 11.8158 7.91298 11.7595 7.645 11.65C7.37787 11.541 7.13468 11.3808 6.92917 11.1783C6.72471 10.9769 6.56215 10.737 6.45083 10.4725C6.34002 10.2088 6.28294 9.92563 6.28294 9.63958C6.28294 9.35354 6.34002 9.07037 6.45083 8.80667C6.56215 8.54213 6.72471 8.30225 6.92917 8.10083C7.13468 7.89836 7.37787 7.73812 7.645 7.62917C7.91298 7.5197 8.19969 7.46338 8.48917 7.46333V7.4625ZM16.2433 7.4625C16.8283 7.4625 17.3892 7.69167 17.8033 8.1C18.2175 8.50833 18.4492 9.06167 18.4492 9.63917C18.4492 10.2167 18.2167 10.77 17.8033 11.1783C17.39 11.5867 16.8283 11.8158 16.2433 11.8158C15.6583 11.8158 15.0975 11.5867 14.6833 11.1783C14.2692 10.77 14.0375 10.2167 14.0375 9.63917C14.0375 9.06167 14.27 8.50833 14.6833 8.1C15.0967 7.69167 15.6583 7.4625 16.2433 7.4625Z" fill="#676767"/>
</g>
<defs>
<clipPath id="clip0_659_401">
<rect width="25" height="16.6667" fill="white"/>
</clipPath>
</defs>
</svg>
