<svg width="25" height="19" viewBox="0 0 25 19" fill="none" xmlns="http://www.w3.org/2000/svg">
<g id="icon-stm 1" clip-path="url(#clip0_655_7)">
<path id="Vector" fill-rule="evenodd" clip-rule="evenodd" d="M19.7042 0C16.7956 0 14.4223 2.38103 14.3999 5.31638L11.0965 10.1086C10.1749 10.0241 9.38008 10.2172 8.67749 10.6509L0.790421 6.82328C-0.988027 9.49741 0.790421 12.1707 0.790421 12.1707L6.82921 14.9448C7.21542 16.7466 8.80766 18.1034 10.6913 18.1034C12.7396 18.1034 14.437 16.5112 14.6232 14.4836L19.7085 10.7224C22.6258 10.7224 24.999 8.32845 24.999 5.35948L24.9982 5.35862C24.999 2.40345 22.6258 0 19.7042 0ZM10.6913 17.0371C9.57318 17.0371 8.61111 16.4009 8.12232 15.4724L9.55077 16.0474C10.7378 16.5422 12.087 15.9526 12.5611 14.7509C12.7905 14.1767 12.7839 13.5352 12.5427 12.966C12.3015 12.3967 11.8452 11.9457 11.2732 11.7112L10.0628 11.2164C10.269 11.1693 10.4798 11.1456 10.6913 11.1457C12.3059 11.1457 13.599 12.4552 13.599 14.0905C13.599 15.7259 12.3059 17.0362 10.6913 17.0362V17.0371ZM19.7094 8.95172C17.7456 8.95172 16.1499 7.34914 16.1499 5.36034C16.1499 3.38017 17.7413 1.76897 19.7094 1.76897C21.6594 1.76897 23.2551 3.38103 23.2551 5.36034C23.2551 7.35431 21.6585 8.9569 19.7094 8.95172ZM19.7189 2.47759C18.1508 2.47759 16.8809 3.76466 16.8809 5.35172C16.8809 6.93879 18.1465 8.22586 19.7189 8.22586C21.2775 8.22586 22.5568 6.94397 22.5568 5.35172C22.5568 3.75948 21.2775 2.47759 19.7189 2.47759Z" fill="#238DF5"/>
</g>
<defs>
<clipPath id="clip0_655_7">
<rect width="25" height="18.1034" fill="white"/>
</clipPath>
</defs>
</svg>
