<svg width="28" height="28" viewBox="0 0 28 28" fill="none" xmlns="http://www.w3.org/2000/svg">
<g id="4 20" clip-path="url(#clip0_700_3742)">
<path id="Vector" d="M13.9997 28C6.27941 28 0 21.7194 0 13.9997C0 6.28057 6.27941 0 13.9997 0C21.7188 0 28 6.28057 28 13.9997C28 21.7194 21.7194 28 13.9997 28ZM13.9997 0.903525C6.77731 0.903525 0.902365 6.77905 0.902365 13.9997C0.902365 21.2221 6.77789 27.0959 13.9997 27.0959C21.2204 27.0959 27.0959 21.2221 27.0959 13.9997C27.0959 6.77905 21.2209 0.903525 13.9997 0.903525ZM24.3859 13.9997C24.3859 19.7278 19.7267 24.3871 13.9997 24.3871C8.27158 24.3871 3.61236 19.7278 3.61236 13.9997C3.61236 13.4299 3.66111 12.8704 3.74989 12.3244L3.74699 12.3232L3.74989 12.3203C4.55535 7.38953 8.84317 3.6141 13.9997 3.6141C19.1551 3.6141 23.4429 7.39011 24.2495 12.3209C24.2495 12.3221 24.2507 12.3221 24.2507 12.3238L24.2495 12.325C24.3377 12.8704 24.3859 13.4299 24.3859 13.9997ZM22.9015 17.2395C22.2707 16.6842 20.5913 15.3547 18.9676 15.3547C17.3208 15.3547 16.2577 16.596 16.2577 18.5162C16.2577 20.3575 17.1571 21.9922 17.6504 22.7512C18.8575 22.2429 19.9469 21.491 20.8504 20.5427C21.7539 19.5944 22.4522 18.4699 22.9015 17.2395ZM10.3485 22.7512C10.8417 21.9893 11.7412 20.3505 11.7412 18.5162C11.7412 16.5965 10.6781 15.3547 9.03235 15.3547C7.40287 15.3547 5.72813 16.6842 5.09735 17.2395C5.54667 18.4699 6.2449 19.5944 7.14841 20.5427C8.05192 21.491 9.14129 22.2429 10.3485 22.7512ZM13.9997 4.51647C9.70376 4.51647 6.07109 7.39011 4.90933 11.3147C7.46554 9.32598 10.8226 8.12883 13.9997 8.12883C17.1774 8.12883 20.5327 9.32598 23.0901 11.3129C21.9272 7.38953 18.2945 4.51647 13.9997 4.51647ZM23.3918 12.7573C20.9221 10.4552 17.3544 9.03293 13.9997 9.03293C10.6438 9.03293 7.07732 10.4552 4.60641 12.7573C4.54892 13.1692 4.51868 13.5844 4.51589 14.0003C4.51589 14.7947 4.62382 15.5607 4.80894 16.2983C5.67068 15.5932 7.32569 14.4518 9.03177 14.4518C11.158 14.4518 12.6441 16.1242 12.6441 18.5168C12.6441 20.4596 11.7864 22.1587 11.2218 23.068C13.0318 23.6228 14.9665 23.6228 16.7764 23.068C16.2118 22.1587 15.3541 20.4596 15.3541 18.5168C15.3541 16.1242 16.8385 14.4518 18.9665 14.4518C20.6726 14.4518 22.3276 15.592 23.1893 16.2983C23.3733 15.5607 23.4824 14.7947 23.4824 14.0003C23.4802 13.5844 23.4499 13.1691 23.3918 12.7573ZM13.9997 14.9038C13.4009 14.9032 12.8268 14.6651 12.4034 14.2416C11.9799 13.8182 11.7418 13.2441 11.7412 12.6453C11.7421 12.0467 11.9804 11.4729 12.4038 11.0497C12.8272 10.6265 13.4011 10.3885 13.9997 10.3879C14.5981 10.3889 15.1718 10.627 15.5949 11.0501C16.018 11.4733 16.2562 12.0469 16.2571 12.6453C16.2566 13.2439 16.0187 13.818 15.5955 14.2414C15.1723 14.6648 14.5984 14.903 13.9997 14.9038ZM13.9997 11.2897C13.6405 11.2902 13.2961 11.4331 13.0421 11.6871C12.7881 11.9411 12.6452 12.2855 12.6447 12.6447C12.6452 13.0039 12.7881 13.3483 13.0421 13.6023C13.2961 13.8563 13.6405 13.9992 13.9997 13.9997C14.3589 13.9992 14.7033 13.8563 14.9573 13.6023C15.2113 13.3483 15.3542 13.0039 15.3547 12.6447C15.3542 12.2855 15.2113 11.9411 14.9573 11.6871C14.7033 11.4331 14.3589 11.2902 13.9997 11.2897ZM27.1284 6.49122C26.2748 4.35514 23.6309 1.70724 21.926 0.85478L22.3299 0.0470042C24.2147 0.98999 27.0257 3.80154 27.9675 6.15465L27.1284 6.49122ZM9.93472 13.0973V12.1938H10.8382V13.0973H9.93472ZM17.1612 13.0973V12.1938H18.0635V13.0973H17.1612ZM12.6447 26.1935V25.29H13.5471V26.1935H12.6447ZM14.4512 26.1935V25.29H15.3547V26.1935H14.4512ZM5.66836 27.9524C3.78355 27.0094 0.973741 24.1979 0.0319164 21.8448L0.871029 21.5099C1.72465 23.6443 4.36849 26.2922 6.07225 27.1446L5.66836 27.9524Z" fill="white"/>
</g>
<defs>
<clipPath id="clip0_700_3742">
<rect width="28" height="28" fill="white"/>
</clipPath>
</defs>
</svg>
