<svg width="59" height="23" viewBox="0 0 59 23" fill="none" xmlns="http://www.w3.org/2000/svg">
<g id="Group">
<g id="svg_1">
<path id="svg_2" d="M39.3155 5.11828V15.1309C39.3155 15.2896 39.1965 15.4085 39.0377 15.4085H36.9939C36.8351 15.4085 36.7161 15.2896 36.7161 15.1309V5.11828C36.7161 4.95966 36.8351 4.8407 36.9939 4.8407H39.0377C39.1965 4.86053 39.3155 4.97949 39.3155 5.11828ZM55.2694 4.86053H52.9875C52.8684 4.86053 52.7692 4.93983 52.7295 5.0588L50.9238 10.9871L48.9395 5.0588C48.8998 4.93983 48.8006 4.88035 48.6815 4.88035H47.0742C46.9551 4.88035 46.8559 4.95966 46.8162 5.0588L44.8319 10.9871L43.0262 5.0588C42.9865 4.93983 42.8873 4.86053 42.7682 4.86053H40.4863C40.4069 4.86053 40.3077 4.90018 40.268 4.97949C40.2085 5.0588 40.2085 5.1381 40.2283 5.21741L43.6017 15.2499C43.6413 15.3689 43.7406 15.4283 43.8596 15.4283H45.6852C45.8042 15.4283 45.9035 15.349 45.9431 15.2499L47.9076 9.40092L49.8721 15.2499C49.9118 15.3689 50.011 15.4283 50.1301 15.4283H51.9556C52.0747 15.4283 52.1739 15.349 52.2136 15.2499L55.5869 5.21741C55.6068 5.1381 55.6068 5.03897 55.5472 4.97949C55.448 4.90018 55.3686 4.86053 55.2694 4.86053ZM58.7221 4.86053H56.6783C56.5196 4.86053 56.4005 4.97949 56.4005 5.1381V15.1508C56.4005 15.3094 56.5196 15.4283 56.6783 15.4283H58.7221C58.8809 15.4283 58.9999 15.3094 58.9999 15.1508V5.1381C58.9999 4.97949 58.861 4.86053 58.7221 4.86053ZM35.5453 15.0715C35.6644 15.2103 35.5652 15.4085 35.3866 15.4085H32.8863C32.7871 15.4085 32.6879 15.3689 32.6284 15.2896L32.2117 14.7741C31.3386 15.3292 30.3067 15.6663 29.2154 15.6663C26.1595 15.6663 23.6791 13.1879 23.6791 10.1345C23.6791 7.08116 26.1595 4.60277 29.2154 4.60277C32.2712 4.60277 34.7516 7.08116 34.7516 10.1345C34.7516 11.225 34.4341 12.256 33.8785 13.1284L35.5453 15.0715ZM30.5647 12.8508L29.4733 11.5224C29.3543 11.3836 29.4535 11.1655 29.6321 11.1655H31.9339C32.0529 10.8483 32.1125 10.4914 32.1125 10.1345C32.1125 8.48888 30.8822 7.06133 29.1955 7.06133C27.5089 7.06133 26.2786 8.48888 26.2786 10.1345C26.2786 11.7802 27.5089 13.1879 29.1955 13.1879C29.6916 13.2077 30.148 13.0689 30.5647 12.8508ZM17.3492 15.0318C17.4087 15.4482 17.2698 15.6266 17.1507 15.6266C17.0118 15.6266 16.8332 15.4482 16.615 15.1309C16.3967 14.7939 16.3173 14.4172 16.4364 14.2387C16.4959 14.1198 16.6546 14.0603 16.8332 14.1198C17.1706 14.2387 17.3095 14.7741 17.3492 15.0318ZM15.3847 15.924C15.8014 16.2809 15.9403 16.7171 15.722 17.0145C15.603 17.1731 15.4045 17.2723 15.1466 17.2723C14.9085 17.2723 14.6703 17.193 14.4917 17.0343C14.1147 16.6973 13.9957 16.1421 14.2536 15.8447C14.3528 15.7258 14.5116 15.6663 14.71 15.6663C14.9283 15.6663 15.1664 15.7654 15.3847 15.924ZM14.6703 19.3938C16.4959 19.3938 18.4802 20.0282 20.6828 21.9713C20.9011 22.1695 21.1987 21.9316 21.0003 21.6739C18.8374 18.9576 16.8531 18.4421 14.8688 18.0059C12.4281 17.4705 11.1779 16.1025 10.3048 14.5956C10.1262 14.2982 10.0469 14.3577 10.0469 14.7344C10.027 15.2103 10.0667 15.8249 10.1659 16.4395C10.0667 16.4395 9.9675 16.4395 9.86829 16.4395C6.39574 16.4395 3.55816 13.6241 3.55816 10.1345C3.55816 6.66479 6.37589 3.82952 9.86829 3.82952C13.3607 3.82952 16.1784 6.64496 16.1784 10.1345C16.1784 10.3724 16.1586 10.6302 16.1387 10.8681C15.6823 10.7888 14.7695 10.769 14.1346 10.8285C13.8964 10.8483 13.9361 10.9673 14.1147 10.9871C16.1983 11.3638 17.627 12.6526 17.9643 14.9922C17.9643 15.0516 18.0437 15.0715 18.0635 15.012C18.9168 13.5844 19.4128 11.919 19.4128 10.1147C19.4128 4.86053 15.1466 0.577881 9.86829 0.577881C4.59001 0.577881 0.32373 4.8407 0.32373 10.1147C0.32373 15.3689 4.59001 19.6515 9.86829 19.6515C11.2573 19.6713 12.6463 19.3938 14.6703 19.3938Z" fill="#FF8C00"/>
</g>
</g>
</svg>
