<svg width="33" height="26" viewBox="0 0 33 26" fill="none" xmlns="http://www.w3.org/2000/svg">
<g id="Group">
<g id="Layer 2">
<g id="Layer 1">
<path id="svg_1" d="M6.30928 24.9898V23.3313C6.31894 23.1918 6.29878 23.0519 6.25012 22.9208C6.20146 22.7898 6.12543 22.6706 6.02709 22.5712C5.92875 22.4718 5.81037 22.3945 5.67982 22.3445C5.54926 22.2944 5.40955 22.2728 5.26998 22.281C5.08728 22.269 4.90472 22.3063 4.74136 22.3889C4.57799 22.4716 4.43981 22.5966 4.34124 22.7509C4.25138 22.6012 4.12282 22.4786 3.96909 22.3959C3.81537 22.3132 3.64218 22.2735 3.46778 22.281C3.31576 22.2733 3.16437 22.3055 3.02861 22.3743C2.89286 22.4432 2.77745 22.5463 2.69383 22.6735V22.3473H2.1189V24.9898H2.69936V23.5359C2.68701 23.4455 2.69478 23.3535 2.72211 23.2665C2.74944 23.1795 2.79565 23.0996 2.85745 23.0325C2.91924 22.9655 2.99509 22.9129 3.07957 22.8785C3.16406 22.8441 3.25509 22.8289 3.34616 22.8338C3.72761 22.8338 3.92109 23.0826 3.92109 23.5303V25.0008H4.50155V23.5359C4.48971 23.4456 4.49784 23.3538 4.52535 23.267C4.55286 23.1802 4.5991 23.1006 4.66079 23.0336C4.72248 22.9666 4.79812 22.914 4.88237 22.8795C4.96661 22.845 5.05742 22.8294 5.14836 22.8338C5.54086 22.8338 5.72882 23.0826 5.72882 23.5303V25.0008L6.30928 24.9898ZM14.8974 22.3473H13.952V21.5457H13.3716V22.3473H12.8464V22.8725H13.3826V24.0887C13.3826 24.7023 13.6203 25.0672 14.3003 25.0672C14.5543 25.068 14.8035 24.9971 15.019 24.8626L14.8531 24.3706C14.6989 24.4626 14.524 24.514 14.3445 24.5199C14.0681 24.5199 13.9631 24.343 13.9631 24.0776V22.8725H14.9029L14.8974 22.3473ZM19.8009 22.281C19.6607 22.2768 19.522 22.3106 19.3994 22.3787C19.2768 22.4468 19.1749 22.5467 19.1043 22.6679V22.3473H18.5349V24.9898H19.1098V23.5082C19.1098 23.0715 19.2978 22.8283 19.6627 22.8283C19.7856 22.8266 19.9077 22.8491 20.022 22.8946L20.1989 22.3418C20.0676 22.2948 19.9293 22.2705 19.7898 22.2699L19.8009 22.281ZM12.3875 22.5574C12.0621 22.3639 11.6879 22.2679 11.3095 22.281C10.6406 22.281 10.2039 22.6016 10.2039 23.1268C10.2039 23.558 10.5245 23.8233 11.1161 23.9063L11.3925 23.945C11.7076 23.9892 11.8568 24.0721 11.8568 24.2214C11.8568 24.4259 11.6468 24.542 11.2543 24.542C10.9385 24.5511 10.6289 24.4538 10.3753 24.2656L10.0989 24.7134C10.4338 24.9472 10.8349 25.0674 11.2432 25.0561C12.0061 25.0561 12.4484 24.6968 12.4484 24.1937C12.4484 23.6907 12.1001 23.4861 11.5251 23.4032L11.2487 23.3645C11 23.3313 10.8009 23.2816 10.8009 23.1047C10.8009 22.9278 10.9889 22.7951 11.304 22.7951C11.5953 22.7985 11.8808 22.8765 12.1332 23.0217L12.3875 22.5574ZM27.7864 22.281C27.6462 22.2768 27.5075 22.3106 27.3849 22.3787C27.2623 22.4468 27.1604 22.5467 27.0898 22.6679V22.3473H26.5204V24.9898H27.0953V23.5082C27.0953 23.0715 27.2833 22.8283 27.6482 22.8283C27.7711 22.8266 27.8932 22.8491 28.0075 22.8946L28.1844 22.3418C28.0531 22.2948 27.9148 22.2705 27.7753 22.2699L27.7864 22.281ZM20.3786 23.663C20.3717 23.8487 20.4037 24.0338 20.4725 24.2064C20.5413 24.379 20.6454 24.5354 20.7781 24.6655C20.9108 24.7956 21.0692 24.8965 21.2431 24.9619C21.4171 25.0273 21.6027 25.0556 21.7883 25.0451C22.1335 25.0626 22.4727 24.9502 22.7391 24.73L22.4627 24.2656C22.264 24.4172 22.0216 24.5005 21.7717 24.5033C21.5592 24.4861 21.3609 24.3895 21.2164 24.2328C21.0718 24.0761 20.9915 23.8707 20.9915 23.6575C20.9915 23.4443 21.0718 23.2389 21.2164 23.0822C21.3609 22.9254 21.5592 22.8289 21.7717 22.8117C22.0216 22.8145 22.264 22.8978 22.4627 23.0494L22.7391 22.585C22.4727 22.3648 22.1335 22.2523 21.7883 22.2699C21.6027 22.2594 21.4171 22.2877 21.2431 22.3531C21.0692 22.4185 20.9108 22.5194 20.7781 22.6495C20.6454 22.7796 20.5413 22.9359 20.4725 23.1086C20.4037 23.2812 20.3717 23.4663 20.3786 23.652V23.663ZM25.763 23.663V22.3473H25.1881V22.6679C25.0905 22.5423 24.9644 22.4417 24.8202 22.3744C24.676 22.3071 24.5179 22.2751 24.3589 22.281C23.9923 22.281 23.6408 22.4266 23.3816 22.6858C23.1224 22.9449 22.9768 23.2965 22.9768 23.663C22.9768 24.0296 23.1224 24.3811 23.3816 24.6403C23.6408 24.8995 23.9923 25.0451 24.3589 25.0451C24.5179 25.0509 24.676 25.0189 24.8202 24.9516C24.9644 24.8843 25.0905 24.7837 25.1881 24.6581V24.9787H25.763V23.663ZM23.6236 23.663C23.6328 23.5075 23.6873 23.358 23.7803 23.233C23.8733 23.108 24.0009 23.013 24.1473 22.9596C24.2936 22.9062 24.4524 22.8967 24.6041 22.9324C24.7558 22.9682 24.8937 23.0474 25.0009 23.1605C25.1081 23.2736 25.1798 23.4156 25.2073 23.569C25.2349 23.7223 25.2169 23.8804 25.1557 24.0237C25.0946 24.167 24.9928 24.2893 24.863 24.3755C24.7332 24.4617 24.581 24.508 24.4252 24.5088C24.3158 24.5102 24.2072 24.4889 24.1064 24.4463C24.0056 24.4037 23.9147 24.3407 23.8394 24.2613C23.7641 24.1818 23.7061 24.0877 23.6689 23.9847C23.6318 23.8818 23.6164 23.7722 23.6236 23.663ZM16.6857 22.281C16.3192 22.2861 15.9697 22.4366 15.7141 22.6994C15.4586 22.9623 15.3179 23.3158 15.323 23.6824C15.3282 24.0489 15.4787 24.3984 15.7415 24.654C16.0043 24.9095 16.3579 25.0502 16.7244 25.0451C17.1221 25.0655 17.5132 24.9374 17.8218 24.6857L17.5454 24.2601C17.3271 24.4351 17.0567 24.5324 16.7769 24.5365C16.5869 24.5528 16.398 24.4944 16.2503 24.3736C16.1027 24.2528 16.008 24.0792 15.9864 23.8897H17.9489C17.9489 23.8178 17.9489 23.7459 17.9489 23.6685C17.9489 22.8393 17.4348 22.2865 16.694 22.2865L16.6857 22.281ZM16.6857 22.7951C16.7718 22.7933 16.8573 22.8084 16.9375 22.8396C17.0177 22.8709 17.0909 22.9176 17.153 22.9771C17.2152 23.0367 17.2649 23.1079 17.2995 23.1867C17.3341 23.2655 17.3528 23.3503 17.3546 23.4364H15.9726C15.9826 23.2589 16.0617 23.0925 16.1929 22.9726C16.3241 22.8527 16.4971 22.789 16.6747 22.7951H16.6857ZM31.0895 23.6685V21.2859H30.5367V22.6679C30.439 22.5423 30.3129 22.4417 30.1687 22.3744C30.0245 22.3071 29.8664 22.2751 29.7074 22.281C29.3409 22.281 28.9893 22.4266 28.7302 22.6858C28.471 22.9449 28.3254 23.2965 28.3254 23.663C28.3254 24.0296 28.471 24.3811 28.7302 24.6403C28.9893 24.8995 29.3409 25.0451 29.7074 25.0451C29.8664 25.0509 30.0245 25.0189 30.1687 24.9516C30.3129 24.8843 30.439 24.7837 30.5367 24.6581V24.9787H31.0895V23.6685ZM32.0486 24.6056C32.0846 24.6051 32.1202 24.6117 32.1537 24.6249C32.1854 24.6379 32.2145 24.6566 32.2393 24.6802C32.2636 24.704 32.2833 24.7322 32.2974 24.7631C32.3114 24.7954 32.3186 24.8302 32.3186 24.8654C32.3186 24.9006 32.3114 24.9354 32.2974 24.9677C32.2833 24.9987 32.2636 25.0268 32.2393 25.0506C32.2145 25.0742 32.1854 25.0929 32.1537 25.1059C32.1206 25.1205 32.0848 25.128 32.0486 25.128C31.9962 25.1276 31.945 25.1123 31.901 25.0839C31.8569 25.0556 31.8219 25.0152 31.7999 24.9677C31.786 24.9354 31.7789 24.9006 31.7789 24.8654C31.7789 24.8302 31.786 24.7955 31.7999 24.7631C31.8139 24.7322 31.8336 24.704 31.8579 24.6802C31.8828 24.6566 31.9118 24.6379 31.9436 24.6249C31.9796 24.6106 32.0182 24.604 32.0569 24.6056H32.0486ZM32.0486 25.0727C32.0762 25.0729 32.1035 25.0672 32.1288 25.0561C32.1526 25.0455 32.1741 25.0305 32.1924 25.0119C32.2269 24.9742 32.2461 24.9249 32.2461 24.8737C32.2461 24.8225 32.2269 24.7732 32.1924 24.7355C32.1742 24.7168 32.1526 24.7018 32.1288 24.6913C32.1035 24.6802 32.0762 24.6746 32.0486 24.6747C32.0211 24.6748 31.9938 24.6805 31.9685 24.6913C31.9436 24.7014 31.9211 24.7165 31.9021 24.7355C31.8675 24.7732 31.8484 24.8225 31.8484 24.8737C31.8484 24.9249 31.8675 24.9742 31.9021 25.0119C31.9211 25.0309 31.9437 25.0459 31.9685 25.0561C31.9963 25.0682 32.0266 25.0738 32.0569 25.0727H32.0486ZM32.0652 24.7438C32.091 24.7425 32.1164 24.7504 32.1371 24.7659C32.1455 24.7729 32.1522 24.7818 32.1565 24.7919C32.1609 24.802 32.1627 24.813 32.1619 24.8239C32.1623 24.8331 32.1608 24.8423 32.1575 24.8509C32.1542 24.8594 32.1491 24.8672 32.1426 24.8737C32.1266 24.8882 32.1061 24.897 32.0846 24.8986L32.1647 24.9898H32.1011L32.0265 24.8986H32.0016V24.9898H31.9491V24.7465L32.0652 24.7438ZM32.0044 24.7908V24.8571H32.0652C32.076 24.8603 32.0876 24.8603 32.0984 24.8571C32.1003 24.8533 32.1013 24.849 32.1013 24.8447C32.1013 24.8404 32.1003 24.8361 32.0984 24.8322C32.1003 24.8284 32.1013 24.8241 32.1013 24.8198C32.1013 24.8155 32.1003 24.8112 32.0984 24.8074C32.0876 24.8041 32.076 24.8041 32.0652 24.8074L32.0044 24.7908ZM28.9639 23.6685C28.973 23.513 29.0275 23.3635 29.1205 23.2386C29.2136 23.1136 29.3411 23.0185 29.4875 22.9651C29.6339 22.9117 29.7927 22.9023 29.9444 22.938C30.096 22.9737 30.234 23.053 30.3411 23.1661C30.4483 23.2791 30.5201 23.4211 30.5476 23.5745C30.5751 23.7279 30.5572 23.8859 30.496 24.0292C30.4348 24.1725 30.3331 24.2948 30.2033 24.381C30.0735 24.4672 29.9213 24.5136 29.7655 24.5144C29.656 24.5157 29.5475 24.4945 29.4467 24.4519C29.3458 24.4093 29.2549 24.3463 29.1796 24.2668C29.1043 24.1874 29.0463 24.0932 29.0092 23.9903C28.972 23.8873 28.9566 23.7778 28.9639 23.6685ZM9.55157 23.6685V22.3473H8.97664V22.6679C8.879 22.5423 8.75289 22.4417 8.60871 22.3744C8.46453 22.3071 8.30641 22.2751 8.14741 22.281C7.78087 22.281 7.42934 22.4266 7.17015 22.6858C6.91096 22.9449 6.76536 23.2965 6.76536 23.663C6.76536 24.0296 6.91096 24.3811 7.17015 24.6403C7.42934 24.8995 7.78087 25.0451 8.14741 25.0451C8.30641 25.0509 8.46453 25.0189 8.60871 24.9516C8.75289 24.8843 8.879 24.7837 8.97664 24.6581V24.9787H9.55157V23.6685ZM7.41216 23.6685C7.42132 23.513 7.47578 23.3635 7.56882 23.2386C7.66186 23.1136 7.78942 23.0185 7.9358 22.9651C8.08218 22.9117 8.24098 22.9023 8.39264 22.938C8.54431 22.9737 8.68223 23.053 8.78941 23.1661C8.89659 23.2791 8.96836 23.4211 8.99587 23.5745C9.02339 23.7279 9.00545 23.8859 8.94427 24.0292C8.88308 24.1725 8.78133 24.2948 8.65153 24.381C8.52173 24.4672 8.36956 24.5136 8.21375 24.5144C8.10384 24.5165 7.99469 24.4958 7.89321 24.4536C7.79173 24.4113 7.70014 24.3484 7.62425 24.2689C7.54837 24.1894 7.48983 24.0949 7.45237 23.9916C7.41491 23.8882 7.39933 23.7782 7.40663 23.6685H7.41216Z" fill="white"/>
<g id="&#60;Group&#62;">
<path id="svg_2" d="M20.9037 2.12817H12.1968V17.7758H20.9037V2.12817Z" fill="#FF5F00"/>
<path id="&#60;Path&#62;" d="M12.7496 9.95314C12.748 8.44595 13.0894 6.95815 13.7478 5.60241C14.4063 4.24667 15.3646 3.05853 16.5503 2.12796C15.0823 0.974283 13.3193 0.25688 11.4629 0.0577431C9.60649 -0.141394 7.7315 0.18577 6.05222 1.00184C4.37294 1.81792 2.95714 3.08997 1.96661 4.67263C0.976085 6.25529 0.450806 8.08469 0.450806 9.95176C0.450806 11.8188 0.976085 13.6482 1.96661 15.2309C2.95714 16.8135 4.37294 18.0856 6.05222 18.9017C7.7315 19.7177 9.60649 20.0449 11.4629 19.8458C13.3193 19.6466 15.0823 18.9292 16.5503 17.7756C15.365 16.8453 14.4069 15.6576 13.7484 14.3024C13.09 12.9471 12.7484 11.4599 12.7496 9.95314Z" fill="#EB001B"/>
<path id="svg_3" d="M32.6512 9.95332C32.6512 11.8205 32.1258 13.65 31.1351 15.2328C30.1444 16.8155 28.7283 18.0875 27.0488 18.9035C25.3694 19.7194 23.4942 20.0464 21.6377 19.8469C19.7811 19.6475 18.0182 18.9298 16.5503 17.7757C17.7351 16.8446 18.6929 15.6566 19.3515 14.3013C20.0102 12.946 20.3524 11.4588 20.3524 9.95193C20.3524 8.44507 20.0102 6.95788 19.3515 5.60257C18.6929 4.24726 17.7351 3.05924 16.5503 2.12813C18.0182 0.974097 19.7811 0.256345 21.6377 0.0569216C23.4942 -0.142501 25.3694 0.184452 27.0488 1.00041C28.7283 1.81637 30.1444 3.0884 31.1351 4.67111C32.1258 6.25382 32.6512 8.08334 32.6512 9.95055V9.95332Z" fill="#F79E1B"/>
<path id="svg_4" d="M31.7004 16.1172V15.7966H31.8303V15.7302H31.5013V15.7966H31.6423V16.1172H31.7004ZM32.3389 16.1172V15.7302H32.2394L32.1233 16.0066L32.0072 15.7302H31.9187V16.1172H31.9906V15.827L32.0984 16.0785H32.173L32.2808 15.827V16.12L32.3389 16.1172Z" fill="#F79E1B"/>
</g>
</g>
</g>
</g>
</svg>
