<svg width="92" height="23" viewBox="0 0 92 23" fill="none" xmlns="http://www.w3.org/2000/svg">
<g id="Group">
<path id="svg_1" d="M47.9838 6.50447H45.0474L42.9693 10.1564H41.8997L41.8655 2.25293H39.0856V16.5269H41.8655L41.8997 12.6092H42.9625L45.7218 16.5269H48.8015L45.2039 11.3351L47.9838 6.50447Z" fill="white"/>
<path id="svg_2" d="M69.0235 11.2055C68.4587 10.84 67.8465 10.5535 67.2042 10.3538L66.5909 10.1222L66.4275 10.0608C66.046 9.91778 65.644 9.76788 65.6303 9.37951C65.6269 9.26448 65.6522 9.1504 65.7048 9.04795C65.7571 8.9455 65.8347 8.85795 65.9301 8.79358C66.1315 8.65483 66.3673 8.57463 66.6114 8.56191C67.1437 8.52516 67.6715 8.68248 68.0967 9.00477L68.1716 9.0525L69.6569 7.34234L69.5821 7.28101C69.3971 7.11617 69.1965 6.9701 68.9825 6.84495C68.5992 6.62579 68.1829 6.47155 67.7494 6.38845C67.1249 6.25561 66.4795 6.25561 65.8552 6.38845C65.2515 6.46834 64.6789 6.70309 64.1928 7.06978C63.8818 7.31304 63.622 7.61513 63.4278 7.95883C63.234 8.30255 63.1095 8.68111 63.0617 9.0729C62.9765 9.77998 63.156 10.4936 63.5659 11.0761C64.1101 11.6788 64.8218 12.1058 65.6098 12.3024L65.7325 12.3433L66.0118 12.4387C67.0203 12.7794 67.3064 12.9156 67.4698 13.1201C67.546 13.2229 67.5887 13.3465 67.5925 13.4744C67.5925 13.9581 66.9997 14.1557 66.5977 14.2783C66.3167 14.3311 66.0279 14.3257 65.7489 14.2624C65.47 14.1991 65.2071 14.0793 64.9764 13.9104C64.6027 13.6606 64.2831 13.3386 64.0359 12.9634C63.8794 13.1269 62.3393 14.6462 62.3667 14.6735L62.4146 14.7416C63.1564 15.6705 64.1959 16.3154 65.3579 16.5676C65.6231 16.6189 65.8918 16.6531 66.1619 16.6698H66.4412C67.359 16.689 68.2581 16.4092 69.003 15.8726C69.5068 15.5163 69.8931 15.0183 70.1136 14.4418C70.2476 14.0549 70.2948 13.6432 70.2524 13.2359C70.21 12.8286 70.0791 12.4355 69.8682 12.0844C69.6528 11.7343 69.3646 11.4346 69.0235 11.2055Z" fill="white"/>
<path id="svg_3" d="M78.0034 11.2056C77.4411 10.8402 76.8316 10.5536 76.1913 10.3539L75.5712 10.1223L75.4146 10.061C75.0263 9.91787 74.6311 9.76797 74.6106 9.37964C74.6123 9.26481 74.641 9.15203 74.6944 9.05027C74.7477 8.94853 74.8239 8.86064 74.9173 8.79368C75.1186 8.65492 75.3545 8.57476 75.5986 8.56204C76.1308 8.52652 76.6579 8.6837 77.0839 9.0049L77.1519 9.05259L78.6372 7.34243L78.5692 7.28111C78.3829 7.11466 78.1798 6.96849 77.9628 6.84508C77.582 6.62616 77.1676 6.47189 76.7362 6.38858C76.1096 6.25557 75.4622 6.25557 74.8356 6.38858C74.2325 6.47083 73.6603 6.7053 73.1728 7.06991C72.86 7.31085 72.5978 7.61126 72.4013 7.95386C72.205 8.29646 72.0782 8.67447 72.0283 9.06623C71.9391 9.77355 72.1189 10.4886 72.5325 11.0694C73.0768 11.6721 73.7885 12.0991 74.5764 12.2958L74.6923 12.3366L74.9716 12.432C75.9869 12.7727 76.273 12.909 76.4364 13.1134C76.515 13.2144 76.5561 13.3397 76.5523 13.4676C76.5523 13.9514 75.9664 14.149 75.5644 14.2716C75.2823 14.3246 74.9921 14.3192 74.7121 14.256C74.4322 14.1927 74.1679 14.0728 73.9362 13.9037C73.5656 13.6503 73.2466 13.3289 72.9957 12.9567C72.846 13.1202 71.306 14.6395 71.3265 14.6668L71.3808 14.7349C72.123 15.6638 73.1626 16.3087 74.3245 16.5609C74.5898 16.6127 74.8585 16.6468 75.1285 16.6631H75.4078C76.3257 16.6823 77.2247 16.4025 77.9696 15.8659C78.4735 15.5096 78.8598 15.0116 79.0803 14.4351C79.2139 14.0482 79.2614 13.6365 79.2191 13.2292C79.1767 12.8219 79.0457 12.4288 78.8348 12.0777C78.6222 11.7318 78.3388 11.4346 78.0034 11.2056Z" fill="white"/>
<path id="svg_4" d="M57.1135 6.50435V7.48548H56.9912C56.2302 6.72357 55.1992 6.29267 54.1227 6.28632C53.4626 6.27329 52.807 6.3994 52.1991 6.6565C51.591 6.91357 51.0437 7.29586 50.5932 7.77844C49.6845 8.79595 49.1974 10.1212 49.2305 11.4849C49.1953 12.8716 49.6814 14.2209 50.5932 15.2663C51.0331 15.7492 51.5715 16.1318 52.1725 16.3881C52.7731 16.6444 53.4219 16.7684 54.0749 16.7516C55.153 16.7314 56.1899 16.3335 57.0045 15.6274H57.1135V16.5063H60.0025V6.50435H57.1135ZM57.2568 11.5394C57.2858 12.3454 57.0165 13.1339 56.5003 13.7538C56.2531 14.0307 55.9478 14.2499 55.6063 14.3959C55.2652 14.542 54.8956 14.6111 54.5247 14.5986C54.1648 14.6047 53.8079 14.5294 53.4811 14.3784C53.1543 14.2274 52.8657 14.0045 52.6374 13.7265C52.1274 13.0938 51.8658 12.2968 51.9014 11.4849C51.8782 10.6975 52.1448 9.92893 52.6507 9.32509C52.8839 9.05124 53.1744 8.83229 53.5019 8.68386C53.8294 8.53546 54.1856 8.46125 54.5449 8.46658C54.9138 8.45513 55.2802 8.52555 55.6183 8.67282C55.9564 8.82009 56.2579 9.04054 56.5003 9.31826C57.0165 9.9409 57.2855 10.7314 57.2568 11.5394Z" fill="white"/>
<path id="svg_5" d="M88.5369 6.50449V7.48559H88.4142C87.6549 6.72536 86.627 6.2946 85.5526 6.28646C84.8918 6.27416 84.2354 6.40061 83.6262 6.65761C83.0174 6.91461 82.4688 7.29648 82.0165 7.77859C81.1079 8.7961 80.6207 10.1213 80.6539 11.4851C80.6187 12.8717 81.1048 14.2211 82.0165 15.2665C82.4564 15.7494 82.9949 16.132 83.5955 16.3882C84.1964 16.6445 84.8453 16.7685 85.4982 16.7518C86.5764 16.7315 87.6129 16.3337 88.4278 15.6276H88.5369V16.5065H91.4258V6.50449H88.5369ZM88.6801 11.5396C88.7122 12.3461 88.4425 13.1356 87.9236 13.7539C87.6764 14.0309 87.3712 14.2501 87.0297 14.3961C86.6882 14.5421 86.319 14.6113 85.9477 14.5987C85.5878 14.6048 85.2312 14.5295 84.9044 14.3785C84.5776 14.2275 84.2891 14.0047 84.0604 13.7267C83.5507 13.0939 83.2888 12.2969 83.3247 11.4851C83.3015 10.6976 83.5681 9.92908 84.0741 9.32521C84.3072 9.05139 84.5978 8.8324 84.9253 8.68401C85.2528 8.53558 85.609 8.4614 85.9682 8.46673C86.3371 8.45524 86.7036 8.5257 87.0416 8.67297C87.3797 8.82023 87.6809 9.04069 87.9236 9.31841C88.4425 9.93944 88.7119 10.731 88.6801 11.5396Z" fill="white"/>
<path id="svg_6" d="M20.1094 0.577881C14.1119 0.577881 9.34119 5.41676 9.34119 11.3461C9.34119 17.3435 14.1801 22.1142 20.1094 22.1142C26.0387 22.1142 30.8775 17.2754 30.8775 11.3461C30.8775 5.41676 26.0387 0.577881 20.1094 0.577881ZM20.1094 15.2989C17.9285 15.2989 16.0884 13.4588 16.0884 11.2779C16.0884 9.09701 17.9285 7.25688 20.1094 7.25688C22.2903 7.25688 24.1304 9.09701 24.1304 11.2779C24.0622 13.5269 22.2903 15.2989 20.1094 15.2989Z" fill="white"/>
<path id="svg_7" d="M9.27278 3.64478V19.32H5.4562L0.549194 3.64478H9.27278Z" fill="white"/>
</g>
</svg>
