<svg width="61" height="21" viewBox="0 0 61 21" fill="none" xmlns="http://www.w3.org/2000/svg">
<g id="Group">
<g id="svg_1">
<path id="svg_2" d="M26.3673 20.2657H21.4043L24.5061 1.20293H29.4696L26.3673 20.2657ZM17.2291 1.20293L12.4976 14.3144L11.9377 11.491L11.9382 11.492L10.2682 2.91931C10.2682 2.91931 10.0663 1.20293 7.91391 1.20293H0.0917851L0 1.52571C0 1.52571 2.39202 2.02339 5.19147 3.70458L9.50332 20.2662H14.6744L22.5705 1.20293H17.2291ZM56.2658 20.2657H60.8229L56.8496 1.20242H52.86C51.0177 1.20242 50.569 2.62305 50.569 2.62305L43.167 20.2657H48.3406L49.3753 17.4341H55.6845L56.2658 20.2657ZM50.8046 13.5225L53.4123 6.38878L54.8793 13.5225H50.8046ZM43.5551 5.78708L44.2633 1.69347C44.2633 1.69347 42.0778 0.862305 39.7995 0.862305C37.3366 0.862305 31.4879 1.93874 31.4879 7.17304C31.4879 12.0978 38.3524 12.159 38.3524 14.7458C38.3524 17.3326 32.1951 16.8691 30.1631 15.2379L29.4253 19.5181C29.4253 19.5181 31.6414 20.5946 35.0272 20.5946C38.4141 20.5946 43.5235 18.841 43.5235 14.0681C43.5235 9.11174 36.5973 8.65027 36.5973 6.49536C36.5978 4.33994 41.4313 4.61682 43.5551 5.78708Z" fill="#2566AF"/>
</g>
<path id="svg_3" d="M11.9382 11.4915L10.2682 2.91877C10.2682 2.91877 10.0663 1.20239 7.91391 1.20239H0.0917851L0 1.52517C0 1.52517 3.75962 2.30432 7.36575 5.2236C10.8138 8.01386 11.9382 11.4915 11.9382 11.4915Z" fill="#E6A540"/>
</g>
</svg>
