<svg width="34" height="23" viewBox="0 0 34 23" fill="none" xmlns="http://www.w3.org/2000/svg">
<g id="icon-dcr 1" clip-path="url(#clip0_691_19669)">
<path id="Vector" d="M12.4545 0.666748C12.4545 0.666748 8.62226 0.666748 4.43337 3.40341C4.43337 3.40341 0.333374 10.2856 0.333374 18.909C0.333374 18.909 2.74004 22.8067 8.97893 22.889L11.0289 20.8156C7.2856 19.7379 6.03782 17.5823 6.03782 17.5823C10.94 21.8112 23.5956 21.6456 28.23 17.5823C28.23 17.5823 26.8045 19.9045 23.15 20.8156L25.0212 22.889C31.26 22.8056 33.6667 18.909 33.6667 18.909C33.6667 10.2856 29.5667 3.40341 29.5667 3.40341C25.3778 0.666748 21.5456 0.666748 21.5456 0.666748L21.1 0.99897C25.8234 2.16008 28.8545 4.39897 28.7645 4.48119C23.8634 0.99897 11.3856 0.666748 5.32448 4.48119C5.32448 4.48119 7.55226 2.32564 12.7223 0.99897L12.4545 0.666748ZM11.6523 10.6167C12.4323 10.6167 13.18 10.9223 13.7323 11.4667C14.2845 12.0112 14.5934 12.749 14.5934 13.519C14.5934 14.289 14.2834 15.0267 13.7323 15.5712C13.1812 16.1156 12.4323 16.4212 11.6523 16.4212C11.2663 16.4211 10.884 16.346 10.5267 16.2001C10.1705 16.0548 9.84628 15.8412 9.57226 15.5712C9.29966 15.3026 9.0829 14.9828 8.93448 14.6301C8.78673 14.2785 8.71063 13.9009 8.71063 13.5195C8.71063 13.1381 8.78673 12.7606 8.93448 12.409C9.0829 12.0563 9.29966 11.7364 9.57226 11.4679C9.84628 11.1979 10.1705 10.9842 10.5267 10.839C10.884 10.693 11.2663 10.6179 11.6523 10.6179V10.6167ZM21.9912 10.6167C22.7712 10.6167 23.5189 10.9223 24.0711 11.4667C24.6234 12.0112 24.9323 12.749 24.9323 13.519C24.9323 14.289 24.6223 15.0267 24.0711 15.5712C23.52 16.1156 22.7712 16.4212 21.9912 16.4212C21.2112 16.4212 20.4634 16.1156 19.9112 15.5712C19.3589 15.0267 19.05 14.289 19.05 13.519C19.05 12.749 19.36 12.0112 19.9112 11.4667C20.4623 10.9223 21.2112 10.6167 21.9912 10.6167Z" fill="#5865F2"/>
</g>
<defs>
<clipPath id="clip0_691_19669">
<rect width="33.3333" height="22.2222" fill="white" transform="translate(0.333374 0.666748)"/>
</clipPath>
</defs>
</svg>
