<svg width="35" height="25" viewBox="0 0 35 25" fill="none" xmlns="http://www.w3.org/2000/svg">
<g id="icon-stm 1" clip-path="url(#clip0_691_19665)">
<path id="Vector" fill-rule="evenodd" clip-rule="evenodd" d="M27.0528 0.529053C23.1308 0.529053 19.9308 3.73961 19.9005 7.69759L15.4462 14.1594C14.2036 14.0455 13.1319 14.3059 12.1845 14.8905L1.54968 9.72947C-0.848356 13.3352 1.54968 16.9399 1.54968 16.9399L9.69231 20.6805C10.2131 23.1099 12.36 24.9395 14.8999 24.9395C17.6617 24.9395 19.9505 22.7926 20.2016 20.0586L27.0586 14.987C30.9922 14.987 34.1923 11.759 34.1923 7.75571L34.1911 7.75455C34.1923 3.76983 30.9922 0.529053 27.0528 0.529053ZM14.8999 23.5016C13.3922 23.5016 12.095 22.6438 11.4359 21.3919L13.362 22.1672C14.9626 22.8344 16.7818 22.0393 17.4211 20.4189C17.7305 19.6448 17.7215 18.7798 17.3963 18.0122C17.0711 17.2446 16.4558 16.6365 15.6845 16.3203L14.0525 15.6531C14.3305 15.5896 14.6147 15.5576 14.8999 15.5578C17.0771 15.5578 18.8207 17.3234 18.8207 19.5285C18.8207 21.7336 17.0771 23.5005 14.8999 23.5005V23.5016ZM27.0598 12.5994C24.4118 12.5994 22.2602 10.4385 22.2602 7.75687C22.2602 5.08683 24.406 2.9143 27.0598 2.9143C29.6891 2.9143 31.8407 5.088 31.8407 7.75687C31.8407 10.4455 29.688 12.6064 27.0598 12.5994ZM27.0726 3.8698C24.9581 3.8698 23.2459 5.60527 23.2459 7.74525C23.2459 9.88523 24.9523 11.6207 27.0726 11.6207C29.1742 11.6207 30.8992 9.89221 30.8992 7.74525C30.8992 5.59829 29.1742 3.8698 27.0726 3.8698Z" fill="white"/>
</g>
<defs>
<clipPath id="clip0_691_19665">
<rect width="33.7097" height="24.4105" fill="white" transform="translate(0.483887 0.529053)"/>
</clipPath>
</defs>
</svg>
